<mxfile host="Electron" agent="Mozilla/5.0 (Windows NT 10.0; Win64; x64) AppleWebKit/537.36 (KHTML, like Gecko) draw.io/24.7.17 Chrome/128.0.6613.36 Electron/32.0.1 Safari/537.36" version="24.7.17">
  <diagram name="Page-1" id="MQ398dfTNf59D3E3QrM_">
    <mxGraphModel dx="1963" dy="512" grid="1" gridSize="10" guides="1" tooltips="1" connect="1" arrows="1" fold="1" page="1" pageScale="1" pageWidth="1100" pageHeight="1700" math="0" shadow="0">
      <root>
        <mxCell id="0" />
        <mxCell id="1" parent="0" />
        <mxCell id="6NEX0aoYP6lm-0NFqWW4-21" style="edgeStyle=orthogonalEdgeStyle;rounded=0;orthogonalLoop=1;jettySize=auto;html=1;entryX=1;entryY=0.5;entryDx=0;entryDy=0;endArrow=none;endFill=0;" parent="1" source="6NEX0aoYP6lm-0NFqWW4-20" target="6NEX0aoYP6lm-0NFqWW4-22" edge="1">
          <mxGeometry relative="1" as="geometry">
            <mxPoint x="630" y="470" as="targetPoint" />
          </mxGeometry>
        </mxCell>
        <mxCell id="6NEX0aoYP6lm-0NFqWW4-104" style="edgeStyle=orthogonalEdgeStyle;rounded=0;jumpStyle=none;orthogonalLoop=1;jettySize=auto;html=1;entryX=0.408;entryY=1.065;entryDx=0;entryDy=0;entryPerimeter=0;" parent="1" source="6NEX0aoYP6lm-0NFqWW4-20" edge="1">
          <mxGeometry relative="1" as="geometry">
            <mxPoint x="742.6400000000001" y="412.5999999999999" as="targetPoint" />
          </mxGeometry>
        </mxCell>
        <mxCell id="6NEX0aoYP6lm-0NFqWW4-111" style="edgeStyle=orthogonalEdgeStyle;rounded=0;jumpStyle=none;orthogonalLoop=1;jettySize=auto;html=1;" parent="1" source="6NEX0aoYP6lm-0NFqWW4-20" edge="1">
          <mxGeometry relative="1" as="geometry">
            <mxPoint x="840" y="410" as="targetPoint" />
          </mxGeometry>
        </mxCell>
        <mxCell id="6NEX0aoYP6lm-0NFqWW4-115" style="edgeStyle=orthogonalEdgeStyle;rounded=0;jumpStyle=none;orthogonalLoop=1;jettySize=auto;html=1;" parent="1" source="6NEX0aoYP6lm-0NFqWW4-20" edge="1">
          <mxGeometry relative="1" as="geometry">
            <mxPoint x="900" y="420" as="targetPoint" />
          </mxGeometry>
        </mxCell>
        <mxCell id="6NEX0aoYP6lm-0NFqWW4-122" style="edgeStyle=orthogonalEdgeStyle;rounded=0;jumpStyle=none;orthogonalLoop=1;jettySize=auto;html=1;" parent="1" source="6NEX0aoYP6lm-0NFqWW4-20" edge="1">
          <mxGeometry relative="1" as="geometry">
            <mxPoint x="990" y="410" as="targetPoint" />
          </mxGeometry>
        </mxCell>
        <mxCell id="6NEX0aoYP6lm-0NFqWW4-124" style="edgeStyle=orthogonalEdgeStyle;rounded=0;jumpStyle=none;orthogonalLoop=1;jettySize=auto;html=1;" parent="1" source="6NEX0aoYP6lm-0NFqWW4-20" edge="1">
          <mxGeometry relative="1" as="geometry">
            <mxPoint x="1080" y="410" as="targetPoint" />
          </mxGeometry>
        </mxCell>
        <mxCell id="6NEX0aoYP6lm-0NFqWW4-126" style="edgeStyle=orthogonalEdgeStyle;rounded=0;jumpStyle=none;orthogonalLoop=1;jettySize=auto;html=1;" parent="1" source="6NEX0aoYP6lm-0NFqWW4-20" edge="1">
          <mxGeometry relative="1" as="geometry">
            <mxPoint x="1170" y="410" as="targetPoint" />
          </mxGeometry>
        </mxCell>
        <mxCell id="6NEX0aoYP6lm-0NFqWW4-221" style="edgeStyle=orthogonalEdgeStyle;rounded=0;jumpStyle=none;orthogonalLoop=1;jettySize=auto;html=1;endArrow=none;endFill=0;entryX=0.5;entryY=0;entryDx=0;entryDy=0;" parent="1" source="6NEX0aoYP6lm-0NFqWW4-20" target="6NEX0aoYP6lm-0NFqWW4-222" edge="1">
          <mxGeometry relative="1" as="geometry">
            <mxPoint x="790" y="550" as="targetPoint" />
          </mxGeometry>
        </mxCell>
        <mxCell id="6NEX0aoYP6lm-0NFqWW4-20" value="user" style="rounded=1;arcSize=10;whiteSpace=wrap;html=1;align=center;" parent="1" vertex="1">
          <mxGeometry x="740" y="450" width="100" height="40" as="geometry" />
        </mxCell>
        <mxCell id="6NEX0aoYP6lm-0NFqWW4-23" style="edgeStyle=orthogonalEdgeStyle;rounded=0;orthogonalLoop=1;jettySize=auto;html=1;endArrow=none;endFill=0;shape=link;" parent="1" source="6NEX0aoYP6lm-0NFqWW4-22" edge="1">
          <mxGeometry relative="1" as="geometry">
            <mxPoint x="390" y="470" as="targetPoint" />
          </mxGeometry>
        </mxCell>
        <mxCell id="6NEX0aoYP6lm-0NFqWW4-25" style="edgeStyle=orthogonalEdgeStyle;rounded=0;orthogonalLoop=1;jettySize=auto;html=1;endArrow=none;endFill=0;shape=link;entryX=0.5;entryY=0;entryDx=0;entryDy=0;" parent="1" source="6NEX0aoYP6lm-0NFqWW4-22" target="6NEX0aoYP6lm-0NFqWW4-206" edge="1">
          <mxGeometry relative="1" as="geometry">
            <mxPoint x="580" y="595" as="targetPoint" />
          </mxGeometry>
        </mxCell>
        <mxCell id="6NEX0aoYP6lm-0NFqWW4-22" value="Pay/Book/return" style="rhombus;whiteSpace=wrap;html=1;" parent="1" vertex="1">
          <mxGeometry x="520" y="440" width="120" height="60" as="geometry" />
        </mxCell>
        <mxCell id="6NEX0aoYP6lm-0NFqWW4-130" style="edgeStyle=orthogonalEdgeStyle;rounded=0;jumpStyle=none;orthogonalLoop=1;jettySize=auto;html=1;" parent="1" source="6NEX0aoYP6lm-0NFqWW4-24" edge="1">
          <mxGeometry relative="1" as="geometry">
            <mxPoint x="290" y="410" as="targetPoint" />
          </mxGeometry>
        </mxCell>
        <mxCell id="6NEX0aoYP6lm-0NFqWW4-131" style="edgeStyle=orthogonalEdgeStyle;rounded=0;jumpStyle=none;orthogonalLoop=1;jettySize=auto;html=1;" parent="1" source="6NEX0aoYP6lm-0NFqWW4-24" edge="1">
          <mxGeometry relative="1" as="geometry">
            <mxPoint x="380" y="410" as="targetPoint" />
          </mxGeometry>
        </mxCell>
        <mxCell id="6NEX0aoYP6lm-0NFqWW4-132" style="edgeStyle=orthogonalEdgeStyle;rounded=0;jumpStyle=none;orthogonalLoop=1;jettySize=auto;html=1;" parent="1" edge="1">
          <mxGeometry relative="1" as="geometry">
            <mxPoint x="340" y="360" as="targetPoint" />
            <mxPoint x="340" y="430" as="sourcePoint" />
          </mxGeometry>
        </mxCell>
        <mxCell id="6NEX0aoYP6lm-0NFqWW4-24" value="Payment" style="rounded=1;arcSize=10;whiteSpace=wrap;html=1;align=center;" parent="1" vertex="1">
          <mxGeometry x="290" y="450" width="100" height="40" as="geometry" />
        </mxCell>
        <mxCell id="6NEX0aoYP6lm-0NFqWW4-102" style="edgeStyle=orthogonalEdgeStyle;rounded=0;jumpStyle=none;orthogonalLoop=1;jettySize=auto;html=1;entryX=0.5;entryY=1;entryDx=0;entryDy=0;endArrow=none;endFill=0;shape=link;" parent="1" edge="1">
          <mxGeometry relative="1" as="geometry">
            <mxPoint x="580" y="740" as="sourcePoint" />
            <mxPoint x="580" y="645" as="targetPoint" />
          </mxGeometry>
        </mxCell>
        <mxCell id="6NEX0aoYP6lm-0NFqWW4-101" style="edgeStyle=orthogonalEdgeStyle;rounded=0;jumpStyle=none;orthogonalLoop=1;jettySize=auto;html=1;entryX=0.5;entryY=1;entryDx=0;entryDy=0;endArrow=none;endFill=0;shape=link;" parent="1" source="6NEX0aoYP6lm-0NFqWW4-32" edge="1">
          <mxGeometry relative="1" as="geometry">
            <mxPoint x="580" y="800" as="targetPoint" />
          </mxGeometry>
        </mxCell>
        <mxCell id="6NEX0aoYP6lm-0NFqWW4-153" style="edgeStyle=orthogonalEdgeStyle;rounded=0;jumpStyle=none;orthogonalLoop=1;jettySize=auto;html=1;" parent="1" source="6NEX0aoYP6lm-0NFqWW4-32" edge="1">
          <mxGeometry relative="1" as="geometry">
            <mxPoint x="430" y="890" as="targetPoint" />
          </mxGeometry>
        </mxCell>
        <mxCell id="6NEX0aoYP6lm-0NFqWW4-154" style="edgeStyle=orthogonalEdgeStyle;rounded=0;jumpStyle=none;orthogonalLoop=1;jettySize=auto;html=1;" parent="1" source="6NEX0aoYP6lm-0NFqWW4-32" edge="1">
          <mxGeometry relative="1" as="geometry">
            <mxPoint x="330" y="890" as="targetPoint" />
          </mxGeometry>
        </mxCell>
        <mxCell id="6NEX0aoYP6lm-0NFqWW4-155" style="edgeStyle=orthogonalEdgeStyle;rounded=0;jumpStyle=none;orthogonalLoop=1;jettySize=auto;html=1;" parent="1" source="6NEX0aoYP6lm-0NFqWW4-32" edge="1">
          <mxGeometry relative="1" as="geometry">
            <mxPoint x="230" y="890" as="targetPoint" />
          </mxGeometry>
        </mxCell>
        <mxCell id="6NEX0aoYP6lm-0NFqWW4-156" style="edgeStyle=orthogonalEdgeStyle;rounded=0;jumpStyle=none;orthogonalLoop=1;jettySize=auto;html=1;" parent="1" source="6NEX0aoYP6lm-0NFqWW4-32" edge="1">
          <mxGeometry relative="1" as="geometry">
            <mxPoint x="100" y="890" as="targetPoint" />
          </mxGeometry>
        </mxCell>
        <mxCell id="PSa6jRdPlmViQkSead_B-1" style="edgeStyle=orthogonalEdgeStyle;rounded=0;orthogonalLoop=1;jettySize=auto;html=1;" edge="1" parent="1" source="6NEX0aoYP6lm-0NFqWW4-32">
          <mxGeometry relative="1" as="geometry">
            <mxPoint x="10.000000000000114" y="890" as="targetPoint" />
          </mxGeometry>
        </mxCell>
        <mxCell id="PSa6jRdPlmViQkSead_B-2" style="edgeStyle=orthogonalEdgeStyle;rounded=0;orthogonalLoop=1;jettySize=auto;html=1;" edge="1" parent="1" source="6NEX0aoYP6lm-0NFqWW4-32" target="6NEX0aoYP6lm-0NFqWW4-150">
          <mxGeometry relative="1" as="geometry" />
        </mxCell>
        <mxCell id="6NEX0aoYP6lm-0NFqWW4-32" value="Trip" style="rounded=1;arcSize=10;whiteSpace=wrap;html=1;align=center;" parent="1" vertex="1">
          <mxGeometry x="530" y="900" width="100" height="40" as="geometry" />
        </mxCell>
        <mxCell id="6NEX0aoYP6lm-0NFqWW4-99" style="edgeStyle=orthogonalEdgeStyle;rounded=0;jumpStyle=none;orthogonalLoop=1;jettySize=auto;html=1;entryX=1;entryY=0.5;entryDx=0;entryDy=0;endArrow=none;endFill=0;shape=link;" parent="1" source="6NEX0aoYP6lm-0NFqWW4-71" target="6NEX0aoYP6lm-0NFqWW4-32" edge="1">
          <mxGeometry relative="1" as="geometry" />
        </mxCell>
        <mxCell id="PQeOe0hqCzcliAoFy8cA-1" style="edgeStyle=orthogonalEdgeStyle;rounded=0;orthogonalLoop=1;jettySize=auto;html=1;shape=link;" parent="1" source="6NEX0aoYP6lm-0NFqWW4-71" edge="1">
          <mxGeometry relative="1" as="geometry">
            <mxPoint x="820" y="1040" as="targetPoint" />
          </mxGeometry>
        </mxCell>
        <mxCell id="6NEX0aoYP6lm-0NFqWW4-71" value="has" style="rhombus;whiteSpace=wrap;html=1;" parent="1" vertex="1">
          <mxGeometry x="760" y="890" width="120" height="60" as="geometry" />
        </mxCell>
        <mxCell id="6NEX0aoYP6lm-0NFqWW4-100" style="edgeStyle=orthogonalEdgeStyle;rounded=0;jumpStyle=none;orthogonalLoop=1;jettySize=auto;html=1;entryX=1;entryY=0.5;entryDx=0;entryDy=0;endArrow=none;endFill=0;" parent="1" source="6NEX0aoYP6lm-0NFqWW4-73" target="6NEX0aoYP6lm-0NFqWW4-71" edge="1">
          <mxGeometry relative="1" as="geometry" />
        </mxCell>
        <mxCell id="6NEX0aoYP6lm-0NFqWW4-163" style="edgeStyle=orthogonalEdgeStyle;rounded=0;jumpStyle=none;orthogonalLoop=1;jettySize=auto;html=1;" parent="1" source="6NEX0aoYP6lm-0NFqWW4-73" edge="1">
          <mxGeometry relative="1" as="geometry">
            <mxPoint x="1270" y="890" as="targetPoint" />
          </mxGeometry>
        </mxCell>
        <mxCell id="6NEX0aoYP6lm-0NFqWW4-164" style="edgeStyle=orthogonalEdgeStyle;rounded=0;jumpStyle=none;orthogonalLoop=1;jettySize=auto;html=1;" parent="1" source="6NEX0aoYP6lm-0NFqWW4-73" edge="1">
          <mxGeometry relative="1" as="geometry">
            <mxPoint x="1350" y="890" as="targetPoint" />
          </mxGeometry>
        </mxCell>
        <mxCell id="6NEX0aoYP6lm-0NFqWW4-165" style="edgeStyle=orthogonalEdgeStyle;rounded=0;jumpStyle=none;orthogonalLoop=1;jettySize=auto;html=1;" parent="1" source="6NEX0aoYP6lm-0NFqWW4-73" edge="1">
          <mxGeometry relative="1" as="geometry">
            <mxPoint x="1420" y="890" as="targetPoint" />
          </mxGeometry>
        </mxCell>
        <mxCell id="6NEX0aoYP6lm-0NFqWW4-169" style="edgeStyle=orthogonalEdgeStyle;rounded=0;jumpStyle=none;orthogonalLoop=1;jettySize=auto;html=1;" parent="1" source="6NEX0aoYP6lm-0NFqWW4-73" edge="1">
          <mxGeometry relative="1" as="geometry">
            <mxPoint x="1520" y="890" as="targetPoint" />
          </mxGeometry>
        </mxCell>
        <mxCell id="6NEX0aoYP6lm-0NFqWW4-171" style="edgeStyle=orthogonalEdgeStyle;rounded=0;jumpStyle=none;orthogonalLoop=1;jettySize=auto;html=1;" parent="1" source="6NEX0aoYP6lm-0NFqWW4-73" edge="1">
          <mxGeometry relative="1" as="geometry">
            <mxPoint x="1600" y="890" as="targetPoint" />
          </mxGeometry>
        </mxCell>
        <mxCell id="PSa6jRdPlmViQkSead_B-16" style="edgeStyle=orthogonalEdgeStyle;rounded=0;orthogonalLoop=1;jettySize=auto;html=1;" edge="1" parent="1" source="6NEX0aoYP6lm-0NFqWW4-73">
          <mxGeometry relative="1" as="geometry">
            <mxPoint x="1180" y="890" as="targetPoint" />
          </mxGeometry>
        </mxCell>
        <mxCell id="6NEX0aoYP6lm-0NFqWW4-73" value="Company" style="rounded=1;arcSize=10;whiteSpace=wrap;html=1;align=center;" parent="1" vertex="1">
          <mxGeometry x="1030" y="900" width="100" height="40" as="geometry" />
        </mxCell>
        <mxCell id="6NEX0aoYP6lm-0NFqWW4-128" value="Method" style="ellipse;whiteSpace=wrap;html=1;" parent="1" vertex="1">
          <mxGeometry x="250" y="370" width="70" height="40" as="geometry" />
        </mxCell>
        <mxCell id="6NEX0aoYP6lm-0NFqWW4-129" value="Date" style="ellipse;whiteSpace=wrap;html=1;" parent="1" vertex="1">
          <mxGeometry x="350" y="370" width="70" height="40" as="geometry" />
        </mxCell>
        <mxCell id="6NEX0aoYP6lm-0NFqWW4-133" value="&lt;b&gt;&lt;u&gt;Id&lt;/u&gt;&lt;/b&gt;" style="ellipse;whiteSpace=wrap;html=1;" parent="1" vertex="1">
          <mxGeometry x="300" y="320" width="70" height="40" as="geometry" />
        </mxCell>
        <mxCell id="6NEX0aoYP6lm-0NFqWW4-139" value="Number" style="ellipse;whiteSpace=wrap;html=1;" parent="1" vertex="1">
          <mxGeometry x="360" y="625" width="70" height="30" as="geometry" />
        </mxCell>
        <mxCell id="6NEX0aoYP6lm-0NFqWW4-140" value="State" style="ellipse;whiteSpace=wrap;html=1;" parent="1" vertex="1">
          <mxGeometry x="360" y="665" width="70" height="30" as="geometry" />
        </mxCell>
        <mxCell id="6NEX0aoYP6lm-0NFqWW4-144" value="Id" style="ellipse;whiteSpace=wrap;html=1;" parent="1" vertex="1">
          <mxGeometry x="360" y="585" width="70" height="30" as="geometry" />
        </mxCell>
        <mxCell id="6NEX0aoYP6lm-0NFqWW4-149" value="From" style="ellipse;whiteSpace=wrap;html=1;" parent="1" vertex="1">
          <mxGeometry x="-30" y="860" width="70" height="30" as="geometry" />
        </mxCell>
        <mxCell id="6NEX0aoYP6lm-0NFqWW4-150" value="To" style="ellipse;whiteSpace=wrap;html=1;" parent="1" vertex="1">
          <mxGeometry x="-110" y="860" width="70" height="30" as="geometry" />
        </mxCell>
        <mxCell id="6NEX0aoYP6lm-0NFqWW4-158" value="&lt;b&gt;&lt;u&gt;TripCode&lt;/u&gt;&lt;/b&gt;" style="ellipse;whiteSpace=wrap;html=1;" parent="1" vertex="1">
          <mxGeometry x="400" y="860" width="70" height="30" as="geometry" />
        </mxCell>
        <mxCell id="6NEX0aoYP6lm-0NFqWW4-159" value="Date" style="ellipse;whiteSpace=wrap;html=1;" parent="1" vertex="1">
          <mxGeometry x="300" y="860" width="70" height="30" as="geometry" />
        </mxCell>
        <mxCell id="6NEX0aoYP6lm-0NFqWW4-160" value="Time" style="ellipse;whiteSpace=wrap;html=1;" parent="1" vertex="1">
          <mxGeometry x="200" y="860" width="70" height="30" as="geometry" />
        </mxCell>
        <mxCell id="6NEX0aoYP6lm-0NFqWW4-161" value="Arrive-Time" style="ellipse;whiteSpace=wrap;html=1;" parent="1" vertex="1">
          <mxGeometry x="70" y="860" width="70" height="30" as="geometry" />
        </mxCell>
        <mxCell id="6NEX0aoYP6lm-0NFqWW4-166" value="Name" style="ellipse;whiteSpace=wrap;html=1;" parent="1" vertex="1">
          <mxGeometry x="1220" y="855" width="70" height="40" as="geometry" />
        </mxCell>
        <mxCell id="6NEX0aoYP6lm-0NFqWW4-167" value="Phone" style="ellipse;whiteSpace=wrap;html=1;" parent="1" vertex="1">
          <mxGeometry x="1300" y="855" width="70" height="40" as="geometry" />
        </mxCell>
        <mxCell id="6NEX0aoYP6lm-0NFqWW4-168" value="Logo" style="ellipse;whiteSpace=wrap;html=1;" parent="1" vertex="1">
          <mxGeometry x="1380" y="850" width="70" height="40" as="geometry" />
        </mxCell>
        <mxCell id="6NEX0aoYP6lm-0NFqWW4-170" value="Email" style="ellipse;whiteSpace=wrap;html=1;" parent="1" vertex="1">
          <mxGeometry x="1480" y="850" width="70" height="40" as="geometry" />
        </mxCell>
        <mxCell id="6NEX0aoYP6lm-0NFqWW4-172" value="Password" style="ellipse;whiteSpace=wrap;html=1;" parent="1" vertex="1">
          <mxGeometry x="1570" y="850" width="70" height="40" as="geometry" />
        </mxCell>
        <mxCell id="6NEX0aoYP6lm-0NFqWW4-173" value="1" style="text;html=1;strokeColor=none;fillColor=none;align=center;verticalAlign=middle;whiteSpace=wrap;rounded=0;" parent="1" vertex="1">
          <mxGeometry x="620" y="430" width="60" height="30" as="geometry" />
        </mxCell>
        <mxCell id="6NEX0aoYP6lm-0NFqWW4-174" value="M" style="text;html=1;strokeColor=none;fillColor=none;align=center;verticalAlign=middle;whiteSpace=wrap;rounded=0;" parent="1" vertex="1">
          <mxGeometry x="470" y="430" width="60" height="30" as="geometry" />
        </mxCell>
        <mxCell id="6NEX0aoYP6lm-0NFqWW4-175" value="M" style="text;html=1;strokeColor=none;fillColor=none;align=center;verticalAlign=middle;whiteSpace=wrap;rounded=0;" parent="1" vertex="1">
          <mxGeometry x="520" y="510" width="60" height="30" as="geometry" />
        </mxCell>
        <mxCell id="6NEX0aoYP6lm-0NFqWW4-176" value="1" style="text;html=1;strokeColor=none;fillColor=none;align=center;verticalAlign=middle;whiteSpace=wrap;rounded=0;" parent="1" vertex="1">
          <mxGeometry x="515" y="810" width="60" height="30" as="geometry" />
        </mxCell>
        <mxCell id="6NEX0aoYP6lm-0NFqWW4-177" value="M" style="text;html=1;strokeColor=none;fillColor=none;align=center;verticalAlign=middle;whiteSpace=wrap;rounded=0;" parent="1" vertex="1">
          <mxGeometry x="510" y="720" width="60" height="30" as="geometry" />
        </mxCell>
        <mxCell id="6NEX0aoYP6lm-0NFqWW4-178" value="1" style="text;html=1;strokeColor=none;fillColor=none;align=center;verticalAlign=middle;whiteSpace=wrap;rounded=0;" parent="1" vertex="1">
          <mxGeometry x="870" y="880" width="60" height="30" as="geometry" />
        </mxCell>
        <mxCell id="6NEX0aoYP6lm-0NFqWW4-179" value="M" style="text;html=1;strokeColor=none;fillColor=none;align=center;verticalAlign=middle;whiteSpace=wrap;rounded=0;" parent="1" vertex="1">
          <mxGeometry x="720" y="880" width="60" height="30" as="geometry" />
        </mxCell>
        <mxCell id="6NEX0aoYP6lm-0NFqWW4-181" value="&lt;b&gt;&lt;u&gt;Id&lt;/u&gt;&lt;/b&gt;" style="ellipse;whiteSpace=wrap;html=1;" parent="1" vertex="1">
          <mxGeometry x="1140" y="855" width="70" height="40" as="geometry" />
        </mxCell>
        <mxCell id="6NEX0aoYP6lm-0NFqWW4-207" style="edgeStyle=orthogonalEdgeStyle;rounded=0;jumpStyle=none;orthogonalLoop=1;jettySize=auto;html=1;entryX=1;entryY=0.5;entryDx=0;entryDy=0;endArrow=none;endFill=0;" parent="1" source="6NEX0aoYP6lm-0NFqWW4-206" target="6NEX0aoYP6lm-0NFqWW4-144" edge="1">
          <mxGeometry relative="1" as="geometry" />
        </mxCell>
        <mxCell id="6NEX0aoYP6lm-0NFqWW4-208" style="edgeStyle=orthogonalEdgeStyle;rounded=0;jumpStyle=none;orthogonalLoop=1;jettySize=auto;html=1;entryX=1;entryY=0.5;entryDx=0;entryDy=0;endArrow=none;endFill=0;" parent="1" source="6NEX0aoYP6lm-0NFqWW4-206" target="6NEX0aoYP6lm-0NFqWW4-139" edge="1">
          <mxGeometry relative="1" as="geometry" />
        </mxCell>
        <mxCell id="6NEX0aoYP6lm-0NFqWW4-209" style="edgeStyle=orthogonalEdgeStyle;rounded=0;jumpStyle=none;orthogonalLoop=1;jettySize=auto;html=1;endArrow=none;endFill=0;" parent="1" source="6NEX0aoYP6lm-0NFqWW4-206" target="6NEX0aoYP6lm-0NFqWW4-140" edge="1">
          <mxGeometry relative="1" as="geometry" />
        </mxCell>
        <mxCell id="6NEX0aoYP6lm-0NFqWW4-206" value="Seat" style="shape=ext;margin=3;double=1;whiteSpace=wrap;html=1;align=center;fillStyle=auto;" parent="1" vertex="1">
          <mxGeometry x="530" y="615" width="100" height="50" as="geometry" />
        </mxCell>
        <mxCell id="6NEX0aoYP6lm-0NFqWW4-210" value="Has" style="shape=rhombus;double=1;perimeter=rhombusPerimeter;whiteSpace=wrap;html=1;align=center;fillStyle=auto;" parent="1" vertex="1">
          <mxGeometry x="520" y="740" width="120" height="60" as="geometry" />
        </mxCell>
        <mxCell id="6NEX0aoYP6lm-0NFqWW4-211" value="First" style="ellipse;whiteSpace=wrap;html=1;" parent="1" vertex="1">
          <mxGeometry x="670" y="290" width="70" height="40" as="geometry" />
        </mxCell>
        <mxCell id="6NEX0aoYP6lm-0NFqWW4-212" value="Last" style="ellipse;whiteSpace=wrap;html=1;" parent="1" vertex="1">
          <mxGeometry x="755" y="290" width="70" height="40" as="geometry" />
        </mxCell>
        <mxCell id="6NEX0aoYP6lm-0NFqWW4-213" value="Phone" style="ellipse;whiteSpace=wrap;html=1;" parent="1" vertex="1">
          <mxGeometry x="800" y="370" width="70" height="40" as="geometry" />
        </mxCell>
        <mxCell id="6NEX0aoYP6lm-0NFqWW4-214" style="edgeStyle=orthogonalEdgeStyle;rounded=0;jumpStyle=none;orthogonalLoop=1;jettySize=auto;html=1;entryX=0.5;entryY=1;entryDx=0;entryDy=0;" parent="1" source="6NEX0aoYP6lm-0NFqWW4-216" target="6NEX0aoYP6lm-0NFqWW4-211" edge="1">
          <mxGeometry relative="1" as="geometry" />
        </mxCell>
        <mxCell id="6NEX0aoYP6lm-0NFqWW4-215" style="edgeStyle=orthogonalEdgeStyle;rounded=0;jumpStyle=none;orthogonalLoop=1;jettySize=auto;html=1;entryX=0.5;entryY=1;entryDx=0;entryDy=0;" parent="1" source="6NEX0aoYP6lm-0NFqWW4-216" target="6NEX0aoYP6lm-0NFqWW4-212" edge="1">
          <mxGeometry relative="1" as="geometry" />
        </mxCell>
        <mxCell id="6NEX0aoYP6lm-0NFqWW4-216" value="Name" style="ellipse;whiteSpace=wrap;html=1;" parent="1" vertex="1">
          <mxGeometry x="710" y="370" width="70" height="40" as="geometry" />
        </mxCell>
        <mxCell id="6NEX0aoYP6lm-0NFqWW4-217" value="&lt;b&gt;&lt;u&gt;Id&lt;/u&gt;&lt;/b&gt;" style="ellipse;whiteSpace=wrap;html=1;" parent="1" vertex="1">
          <mxGeometry x="870" y="380" width="70" height="40" as="geometry" />
        </mxCell>
        <mxCell id="6NEX0aoYP6lm-0NFqWW4-218" value="Email" style="ellipse;whiteSpace=wrap;html=1;" parent="1" vertex="1">
          <mxGeometry x="950" y="370" width="70" height="40" as="geometry" />
        </mxCell>
        <mxCell id="6NEX0aoYP6lm-0NFqWW4-219" value="Password" style="ellipse;whiteSpace=wrap;html=1;" parent="1" vertex="1">
          <mxGeometry x="1045" y="370" width="70" height="40" as="geometry" />
        </mxCell>
        <mxCell id="6NEX0aoYP6lm-0NFqWW4-220" value="Photo" style="ellipse;whiteSpace=wrap;html=1;" parent="1" vertex="1">
          <mxGeometry x="1130" y="370" width="70" height="40" as="geometry" />
        </mxCell>
        <mxCell id="6NEX0aoYP6lm-0NFqWW4-223" style="edgeStyle=orthogonalEdgeStyle;rounded=0;jumpStyle=none;orthogonalLoop=1;jettySize=auto;html=1;exitX=0;exitY=0.5;exitDx=0;exitDy=0;entryX=0;entryY=0.75;entryDx=0;entryDy=0;endArrow=none;endFill=0;shape=link;" parent="1" source="6NEX0aoYP6lm-0NFqWW4-222" target="6NEX0aoYP6lm-0NFqWW4-20" edge="1">
          <mxGeometry relative="1" as="geometry" />
        </mxCell>
        <mxCell id="6NEX0aoYP6lm-0NFqWW4-224" style="edgeStyle=orthogonalEdgeStyle;rounded=0;jumpStyle=none;orthogonalLoop=1;jettySize=auto;html=1;entryX=0.421;entryY=-0.003;entryDx=0;entryDy=0;endArrow=none;endFill=0;shape=link;entryPerimeter=0;" parent="1" source="6NEX0aoYP6lm-0NFqWW4-222" target="6NEX0aoYP6lm-0NFqWW4-73" edge="1">
          <mxGeometry relative="1" as="geometry" />
        </mxCell>
        <mxCell id="6NEX0aoYP6lm-0NFqWW4-222" value="Manage" style="rhombus;whiteSpace=wrap;html=1;" parent="1" vertex="1">
          <mxGeometry x="730" y="555" width="120" height="60" as="geometry" />
        </mxCell>
        <mxCell id="6NEX0aoYP6lm-0NFqWW4-227" value="1" style="text;html=1;strokeColor=none;fillColor=none;align=center;verticalAlign=middle;whiteSpace=wrap;rounded=0;" parent="1" vertex="1">
          <mxGeometry x="740" y="490" width="60" height="30" as="geometry" />
        </mxCell>
        <mxCell id="6NEX0aoYP6lm-0NFqWW4-228" value="M" style="text;html=1;strokeColor=none;fillColor=none;align=center;verticalAlign=middle;whiteSpace=wrap;rounded=0;" parent="1" vertex="1">
          <mxGeometry x="695" y="550" width="60" height="30" as="geometry" />
        </mxCell>
        <mxCell id="6NEX0aoYP6lm-0NFqWW4-229" value="M" style="text;html=1;align=center;verticalAlign=middle;resizable=0;points=[];autosize=1;strokeColor=none;fillColor=none;" parent="1" vertex="1">
          <mxGeometry x="845" y="550" width="30" height="30" as="geometry" />
        </mxCell>
        <mxCell id="6NEX0aoYP6lm-0NFqWW4-230" value="1" style="text;html=1;strokeColor=none;fillColor=none;align=center;verticalAlign=middle;whiteSpace=wrap;rounded=0;" parent="1" vertex="1">
          <mxGeometry x="780" y="490" width="60" height="30" as="geometry" />
        </mxCell>
        <mxCell id="PSa6jRdPlmViQkSead_B-3" style="edgeStyle=orthogonalEdgeStyle;rounded=0;orthogonalLoop=1;jettySize=auto;html=1;entryX=1;entryY=0.5;entryDx=0;entryDy=0;endArrow=none;endFill=0;" edge="1" parent="1" source="PQeOe0hqCzcliAoFy8cA-2" target="PSa6jRdPlmViQkSead_B-4">
          <mxGeometry relative="1" as="geometry">
            <mxPoint x="670" y="1060" as="targetPoint" />
          </mxGeometry>
        </mxCell>
        <mxCell id="PSa6jRdPlmViQkSead_B-10" style="edgeStyle=orthogonalEdgeStyle;rounded=0;orthogonalLoop=1;jettySize=auto;html=1;" edge="1" parent="1" source="PQeOe0hqCzcliAoFy8cA-2">
          <mxGeometry relative="1" as="geometry">
            <mxPoint x="780" y="1130" as="targetPoint" />
          </mxGeometry>
        </mxCell>
        <mxCell id="PSa6jRdPlmViQkSead_B-11" style="edgeStyle=orthogonalEdgeStyle;rounded=0;orthogonalLoop=1;jettySize=auto;html=1;" edge="1" parent="1" source="PQeOe0hqCzcliAoFy8cA-2">
          <mxGeometry relative="1" as="geometry">
            <mxPoint x="870" y="1130" as="targetPoint" />
          </mxGeometry>
        </mxCell>
        <mxCell id="PQeOe0hqCzcliAoFy8cA-2" value="Bus" style="rounded=1;arcSize=10;whiteSpace=wrap;html=1;align=center;" parent="1" vertex="1">
          <mxGeometry x="770" y="1040" width="100" height="40" as="geometry" />
        </mxCell>
        <mxCell id="PSa6jRdPlmViQkSead_B-6" style="edgeStyle=orthogonalEdgeStyle;rounded=0;orthogonalLoop=1;jettySize=auto;html=1;entryX=0.5;entryY=1;entryDx=0;entryDy=0;endArrow=none;endFill=0;shape=link;" edge="1" parent="1" source="PSa6jRdPlmViQkSead_B-4" target="6NEX0aoYP6lm-0NFqWW4-32">
          <mxGeometry relative="1" as="geometry" />
        </mxCell>
        <mxCell id="PSa6jRdPlmViQkSead_B-4" value="has" style="rhombus;whiteSpace=wrap;html=1;" vertex="1" parent="1">
          <mxGeometry x="520" y="1030" width="120" height="60" as="geometry" />
        </mxCell>
        <mxCell id="PSa6jRdPlmViQkSead_B-7" value="M" style="text;html=1;strokeColor=none;fillColor=none;align=center;verticalAlign=middle;whiteSpace=wrap;rounded=0;" vertex="1" parent="1">
          <mxGeometry x="810" y="950" width="60" height="30" as="geometry" />
        </mxCell>
        <mxCell id="PSa6jRdPlmViQkSead_B-8" value="1" style="text;html=1;strokeColor=none;fillColor=none;align=center;verticalAlign=middle;whiteSpace=wrap;rounded=0;" vertex="1" parent="1">
          <mxGeometry x="630" y="1030" width="60" height="30" as="geometry" />
        </mxCell>
        <mxCell id="PSa6jRdPlmViQkSead_B-9" value="M" style="text;html=1;strokeColor=none;fillColor=none;align=center;verticalAlign=middle;whiteSpace=wrap;rounded=0;" vertex="1" parent="1">
          <mxGeometry x="570" y="980" width="60" height="30" as="geometry" />
        </mxCell>
        <mxCell id="PSa6jRdPlmViQkSead_B-12" value="&lt;b&gt;&lt;u&gt;Id&lt;/u&gt;&lt;/b&gt;" style="ellipse;whiteSpace=wrap;html=1;" vertex="1" parent="1">
          <mxGeometry x="745" y="1130" width="70" height="40" as="geometry" />
        </mxCell>
        <mxCell id="PSa6jRdPlmViQkSead_B-14" value="plate_num" style="ellipse;whiteSpace=wrap;html=1;" vertex="1" parent="1">
          <mxGeometry x="840" y="1130" width="70" height="40" as="geometry" />
        </mxCell>
      </root>
    </mxGraphModel>
  </diagram>
</mxfile>
